<svg id="Layer_1" data-name="Layer 1" xmlns="http://www.w3.org/2000/svg" viewBox="0 0 320 256"><defs><style>.cls-1{fill:#27bdbe;}.cls-2{fill:#6f2c91;}</style></defs><title>Artboard 1</title><path class="cls-1" d="M219.1,56.43c-17.67-5.14-27.87,9.83-28.63,11-.65-1-10.87-16.17-28.63-11,0,0-20.81,7.31-9.89,30.39,0,0,5.61,15.07,38.46,41.27h.1l0,0C223.38,101.88,229,86.82,229,86.82,239.91,63.74,219.1,56.43,219.1,56.43Z"/><path class="cls-2" d="M230.5,30.12a16.24,16.24,0,1,1-16.24-16.24A16.24,16.24,0,0,1,230.5,30.12Z"/><path class="cls-2" d="M222.65,57.87v0a16.24,16.24,0,1,0-9.18,29.63,16.47,16.47,0,0,0,3.32-.34c.81,9.73-15.86,24.2-15.86,24.2v8C254.9,74.8,222.65,57.87,222.65,57.87Z"/><path class="cls-2" d="M90.6,181.34c0,16-8.24,25.13-27.08,25.13-5.56,0-10.4-.72-18.85-3.6l1-9c7.42,3.39,11.85,4.73,19,4.73,10.19,0,16.27-6.89,16.27-18v-5.14h-.21c-4.12,5.45-10.91,8.13-17.6,8.13-15,0-22.45-12.25-22.45-25.84s7.62-27.91,23.48-27.91c9.26,0,14.41,3.4,17.29,9.06h.21V131.1h9ZM80.92,158c0-10.91-5-20.28-15.34-20.28-9.79,0-14.62,10.6-14.62,19.56,0,9.89,5.56,18.54,14.62,18.54S80.92,167.75,80.92,158Z"/><path class="cls-2" d="M105.53,131.1h9.06v8.13h.21c2.57-5.46,8.13-9.37,13.69-9.37a27.42,27.42,0,0,1,6.39.72v8.65a14.35,14.35,0,0,0-5.36-.92c-8.65,0-14.31,8.23-14.31,21.41v23.89h-9.68Z"/><path class="cls-2" d="M146.51,134.8a33.48,33.48,0,0,1,17.3-4.94c15,0,21.11,7.42,21.11,21.73v21.72a84.41,84.41,0,0,0,.41,10.3h-9.06v-6.8h-.2a19.49,19.49,0,0,1-16.27,8c-11.33,0-19.26-4.95-19.26-16.38,0-13.18,14.42-17.29,24.41-17.29,3.8,0,6.48,0,10.29.2,0-9.06-3.29-13.69-13-13.69A24.71,24.71,0,0,0,147,143Zm28.73,23.79c-2.06,0-4.12-.21-6.18-.21-5.25,0-18.22.83-18.22,10.09,0,5.56,5.35,8.55,9.78,8.55,9.58,0,14.62-6,14.62-13.8Z"/><path class="cls-2" d="M233.11,140a28.07,28.07,0,0,0-10.5-2.26c-10.81,0-16.89,9.68-16.89,19.66,0,9.37,5.05,19.67,17.51,19.67a20.21,20.21,0,0,0,10.4-3l.72,8.65c-4,1.86-8.65,2.17-12.15,2.17-15.86,0-26.77-12.46-26.77-27.5,0-16,10.7-27.49,26.77-27.49a36.32,36.32,0,0,1,11.74,2.06Z"/><path class="cls-2" d="M284.18,181.45c-3.7,1.34-7.92,3.4-16.57,3.4-18.64,0-27.19-11.33-27.19-28.42,0-15.55,9.79-26.57,24.61-26.57,17.51,0,23.17,12.77,23.17,29.66H250.72A17.18,17.18,0,0,0,268,177c6.38,0,13.8-3.29,16.16-5.25Zm-6.28-29.14c0-8-4.73-14.62-13.07-14.62-9.48,0-13.39,7.82-14.11,14.62Z"/><path class="cls-2" d="M84.69,97.76H77.21v15.47c0,3.27,2,5,4.38,5a6.44,6.44,0,0,0,3.55-1v4.43a16.14,16.14,0,0,1-4.44.78c-5.38,0-8.7-2.55-8.7-8.2V97.76H65.62V93.55H72V87l5.21-1.66v8.21h7.48Z"/><path class="cls-2" d="M90.4,80.24h5.22V97.59h.11a10.36,10.36,0,0,1,9.09-4.71c7.32,0,10.59,4.55,10.59,12.14v16.81H110.2V107.19c0-6.6-1.44-9.82-6-10.09-5.93,0-8.59,4.76-8.59,11.64v13.09H90.4Z"/><path class="cls-2" d="M145.13,120.66a21.68,21.68,0,0,1-8.93,1.83c-10,0-14.64-6.1-14.64-15.3,0-8.38,5.27-14.31,13.26-14.31,9.42,0,12.47,6.88,12.47,16H127.11a9.26,9.26,0,0,0,9.31,9.43,16.77,16.77,0,0,0,8.71-2.83ZM141.75,105c0-4.33-2.55-7.87-7-7.87-5.11,0-7.21,4.21-7.6,7.87Z"/><path class="cls-2" d="M103.47,194.72a18,18,0,0,1,9.32-2.66c8.09,0,11.37,4,11.37,11.7v11.7a45.24,45.24,0,0,0,.22,5.55H119.5v-3.66h-.11a10.5,10.5,0,0,1-8.76,4.32c-6.1,0-10.37-2.66-10.37-8.81,0-7.1,7.76-9.32,13.14-9.32,2,0,3.49,0,5.54.11,0-4.88-1.77-7.37-7-7.37a13.27,13.27,0,0,0-8.21,2.88Zm15.47,12.81c-1.11,0-2.21-.11-3.32-.11-2.83,0-9.82.45-9.82,5.44,0,3,2.88,4.6,5.27,4.6,5.16,0,7.87-3.22,7.87-7.43Z"/><path class="cls-2" d="M132.14,192.73h5v4h.11a11.31,11.31,0,0,1,9.59-4.66c8.21,0,12.2,6.71,12.2,14.31,0,7.76-3.6,15.3-12.14,15.3-5,0-7.82-1.94-9.43-4.55h-.11v15.53h-5.21Zm13.58,3.55c-5.65,0-8.37,5.37-8.37,10.64,0,4.72,2.44,10.54,8.32,10.54,5.6,0,7.93-6.27,7.82-10.7C153.6,201.65,151.38,196.28,145.72,196.28Z"/><path class="cls-2" d="M165.19,192.73h5v4h.11a11.3,11.3,0,0,1,9.59-4.66c8.21,0,12.2,6.71,12.2,14.31,0,7.76-3.6,15.3-12.14,15.3-5,0-7.82-1.94-9.43-4.55h-.11v15.53h-5.21Zm13.58,3.55c-5.65,0-8.37,5.37-8.37,10.64,0,4.72,2.44,10.54,8.32,10.54,5.6,0,7.93-6.27,7.81-10.7C186.65,201.65,184.43,196.28,178.77,196.28Z"/></svg>